<?xml version="1.0" encoding="utf-8"?>
<!-- Generator: Adobe Illustrator 19.2.0, SVG Export Plug-In . SVG Version: 6.00 Build 0)  -->
<svg version="1.1" id="Capa_1" xmlns="http://www.w3.org/2000/svg" xmlns:xlink="http://www.w3.org/1999/xlink" x="0px" y="0px"
	 viewBox="0 0 232 232" style="enable-background:new 0 0 232 232;" xml:space="preserve">
<style type="text/css">
	.st0{fill:#777777;}
</style>
<g>
	<g>
		<path class="st0" d="M54.1,87.1C60.6,87.1,66,79.5,66,73c0-6.6-5.3-11.9-11.9-11.9c-6.6,0-11.9,5.3-11.9,11.9
			C42.2,79.5,47.5,87.1,54.1,87.1z"/>
		<path class="st0" d="M48.4,179.3l3.4-42.1c0.7,0.3,1.5,0.5,2.3,0.5c0.8,0,1.6-0.2,2.3-0.5l3.4,42.1c0.2,3,2.7,5.2,5.6,5.2
			c0.2,0,0.3,0,0.5,0c3.1-0.2,5.4-3,5.2-6.1l-3.7-46.6V99.7c0.5,0.1,0.9,0.3,1.3,0.4L72,131c0.3,2.4,2.3,4.2,4.7,4.2
			c0.2,0,0.4,0,0.5,0c2.6-0.3,4.4-2.6,4.2-5.2L77.6,96c0-0.2-0.1-0.4-0.2-0.6c-0.1-0.3-0.2-0.7-0.3-1c-0.1-0.2-0.3-0.4-0.5-0.6
			c-0.2-0.3-0.4-0.6-0.7-0.8c-0.2-0.2-0.5-0.3-0.7-0.4c-0.2-0.1-0.4-0.3-0.7-0.4c-0.4-0.2-9.9-3.5-18.6-4l-1.2,2.4h0l3.2,24.7
			l-3.8,6.6l-3.8-6.6l3.2-24.7h0l-1.2-2.4c-8.7,0.4-18.2,3.8-18.6,4c-0.3,0.1-0.5,0.3-0.7,0.4c-0.2,0.1-0.5,0.2-0.7,0.4
			c-0.3,0.2-0.5,0.5-0.7,0.8c-0.1,0.2-0.3,0.4-0.4,0.6c-0.2,0.3-0.2,0.7-0.3,1c-0.1,0.2-0.2,0.4-0.2,0.6l-3.8,33.9
			c-0.3,2.6,1.6,4.9,4.2,5.2c0.2,0,0.4,0,0.5,0c2.4,0,4.4-1.8,4.7-4.2l3.4-30.9c0.4-0.1,0.8-0.2,1.3-0.4v32.1l-3.7,46.6
			c-0.3,3.1,2.1,5.8,5.2,6.1c0.2,0,0.3,0,0.5,0C45.7,184.5,48.2,182.3,48.4,179.3z"/>
		<path class="st0" d="M116,56.6c6.6,0,11.9-7.6,11.9-14.2c0-6.6-5.3-11.9-11.9-11.9s-11.9,5.3-11.9,11.9
			C104.1,49,109.5,56.6,116,56.6z"/>
		<path class="st0" d="M110.4,148.8l3.4-42.1c0.7,0.3,1.5,0.5,2.3,0.5c0.8,0,1.6-0.2,2.3-0.5l3.4,42.1c0.2,3,2.7,5.2,5.6,5.2
			c0.2,0,0.3,0,0.5,0c3.1-0.3,5.4-3,5.2-6.1l-3.8-46.6V69.2c0.5,0.1,0.9,0.3,1.3,0.4l3.4,30.9c0.3,2.4,2.3,4.2,4.7,4.2
			c0.2,0,0.3,0,0.5,0c2.6-0.3,4.4-2.6,4.2-5.2l-3.8-33.9c0-0.2-0.1-0.4-0.2-0.6c-0.1-0.3-0.2-0.7-0.3-1c-0.1-0.2-0.3-0.4-0.5-0.6
			c-0.2-0.3-0.4-0.6-0.7-0.8c-0.2-0.2-0.5-0.3-0.7-0.4c-0.2-0.1-0.4-0.3-0.7-0.4c-0.4-0.2-9.9-3.5-18.6-4l-1.2,2.4h0l3.2,24.7
			l-3.8,6.6l-3.8-6.6l3.2-24.7h0l-1.2-2.4c-8.7,0.5-18.2,3.8-18.6,4c-0.3,0.1-0.5,0.3-0.7,0.4c-0.2,0.1-0.5,0.2-0.7,0.4
			c-0.3,0.2-0.5,0.5-0.7,0.8c-0.2,0.2-0.3,0.4-0.4,0.6c-0.2,0.3-0.2,0.7-0.3,1c-0.1,0.2-0.2,0.4-0.2,0.6l-3.8,33.9
			c-0.3,2.6,1.6,4.9,4.2,5.2c0.2,0,0.3,0,0.5,0c2.4,0,4.4-1.8,4.7-4.2l3.4-30.9c0.4-0.1,0.8-0.3,1.3-0.4v32.1l-3.7,46.6
			c-0.3,3.1,2.1,5.8,5.2,6.1c0.1,0,0.3,0,0.5,0C107.7,154,110.1,151.8,110.4,148.8z"/>
		<path class="st0" d="M178,26.1c6.6,0,11.9-7.6,11.9-14.2C189.9,5.3,184.6,0,178,0c-6.6,0-11.9,5.3-11.9,11.9
			C166.1,18.5,171.4,26.1,178,26.1z"/>
		<path class="st0" d="M172.3,118.3l3.4-42.1c0.7,0.3,1.5,0.5,2.3,0.5c0.8,0,1.6-0.2,2.3-0.5l3.4,42.1c0.2,3,2.7,5.2,5.6,5.2
			c0.2,0,0.3,0,0.5,0c3.1-0.3,5.4-3,5.2-6.1l-3.8-46.6V38.7c0.5,0.1,0.9,0.3,1.3,0.4l3.4,30.9c0.3,2.4,2.3,4.2,4.7,4.2
			c0.2,0,0.3,0,0.5,0c2.6-0.3,4.4-2.6,4.2-5.2L201.5,35c0-0.2-0.1-0.4-0.2-0.6c-0.1-0.3-0.2-0.7-0.3-1c-0.1-0.2-0.3-0.4-0.5-0.6
			c-0.2-0.3-0.4-0.6-0.7-0.8c-0.2-0.2-0.5-0.3-0.7-0.4c-0.2-0.1-0.4-0.3-0.7-0.4c-0.4-0.2-9.9-3.6-18.6-4l-1.2,2.4h0l3.2,24.7
			l-3.8,6.6l-3.8-6.6l3.2-24.7h0l-1.2-2.4c-8.7,0.4-18.2,3.8-18.6,4c-0.3,0.1-0.5,0.3-0.7,0.4c-0.2,0.1-0.5,0.2-0.7,0.4
			c-0.3,0.2-0.5,0.5-0.7,0.8c-0.2,0.2-0.3,0.4-0.4,0.6c-0.2,0.3-0.2,0.7-0.3,1c-0.1,0.2-0.2,0.4-0.2,0.6l-3.8,33.9
			c-0.3,2.6,1.6,4.9,4.2,5.2c0.2,0,0.3,0,0.5,0c2.4,0,4.4-1.8,4.7-4.2l3.4-30.9c0.4-0.1,0.8-0.2,1.3-0.4v32.1l-3.7,46.6
			c-0.3,3.1,2.1,5.8,5.2,6.1c0.2,0,0.3,0,0.5,0C169.6,123.5,172.1,121.2,172.3,118.3z"/>
		<path class="st0" d="M189.3,123.5h-22.6H147V154h-19.7h-22.6H85v30.5H65.3H42.8H23.1V232h62h62h62V123.5H189.3z M55.9,221.5v4.2
			h-4.1v-3.9c-2.8-0.1-5.5-0.9-7-1.8l1.2-4.8c1.7,0.9,4.2,1.8,6.9,1.8c2.4,0,4-0.9,4-2.6c0-1.6-1.3-2.6-4.4-3.6
			c-4.4-1.5-7.5-3.6-7.5-7.6c0-3.6,2.6-6.5,7-7.4v-3.9h4.1v3.6c2.8,0.1,4.6,0.7,6,1.4l-1.2,4.7c-1.1-0.5-3-1.4-6-1.4
			c-2.7,0-3.6,1.2-3.6,2.3c0,1.4,1.4,2.2,5,3.6c4.9,1.7,6.9,4,6.9,7.8C63.3,217.5,60.7,220.7,55.9,221.5z M117.9,207.1v4.2h-4.1
			v-3.9c-2.8-0.1-5.5-0.9-7-1.8l1.2-4.8c1.7,0.9,4.2,1.8,6.9,1.8c2.4,0,4-0.9,4-2.6c0-1.6-1.3-2.6-4.4-3.6c-4.4-1.5-7.5-3.6-7.5-7.6
			c0-3.7,2.6-6.5,7-7.4v-3.9h4.1v3.6c2.8,0.1,4.7,0.7,6,1.4l-1.2,4.7c-1.1-0.4-3-1.4-6-1.4c-2.7,0-3.6,1.2-3.6,2.3
			c0,1.4,1.5,2.2,5,3.6c4.9,1.8,6.9,4,6.9,7.8C125.3,203.1,122.7,206.3,117.9,207.1z M179.9,192.7v4.2h-4.1V193
			c-2.8-0.1-5.5-0.9-7.1-1.8l1.2-4.8c1.7,0.9,4.2,1.8,6.9,1.8c2.4,0,4-0.9,4-2.6c0-1.6-1.3-2.6-4.4-3.6c-4.4-1.5-7.5-3.6-7.5-7.6
			c0-3.6,2.6-6.5,7-7.4v-3.9h4.1v3.7c2.8,0.1,4.6,0.7,6,1.4l-1.2,4.7c-1.1-0.5-3-1.4-6-1.4c-2.7,0-3.6,1.2-3.6,2.3
			c0,1.4,1.4,2.2,5,3.6c4.9,1.7,6.9,4,6.9,7.8C187.2,188.7,184.6,191.9,179.9,192.7z"/>
	</g>
</g>
</svg>
