<?xml version="1.0" encoding="UTF-8" standalone="no"?>
<svg
   xmlns:dc="http://purl.org/dc/elements/1.1/"
   xmlns:cc="http://creativecommons.org/ns#"
   xmlns:rdf="http://www.w3.org/1999/02/22-rdf-syntax-ns#"
   xmlns:svg="http://www.w3.org/2000/svg"
   xmlns="http://www.w3.org/2000/svg"
   xml:space="preserve"
   style="enable-background:new 0 0 1000 1000;"
   viewBox="0 0 1000 1000"
   y="0px"
   x="0px"
   id="Layer_1"
   version="1.1"><metadata
     id="metadata29"><rdf:RDF><cc:Work
         rdf:about=""><dc:format>image/svg+xml</dc:format><dc:type
           rdf:resource="http://purl.org/dc/dcmitype/StillImage" /></cc:Work></rdf:RDF></metadata><defs
     id="defs27" /><style
     id="style2"
     type="text/css">
	.st0{fill:#FFFFFF;}
</style><rect
     id="rect4"
     height="11.4"
     width="733.1"
     transform="matrix(-1 -1.224647e-16 1.224647e-16 -1 733.325 1493.4003)"
     y="741"
     x="0.1" /><rect
     id="rect6"
     height="363.8"
     width="53.5"
     y="377.2"
     x="229.5" /><rect
     id="rect8"
     height="363.8"
     width="53.5"
     y="377.2"
     x="719.6" /><rect
     id="rect10"
     height="575"
     width="53.5"
     transform="matrix(0.5693 0.8222 -0.8222 0.5693 421.6184 -73.8253)"
     y="78"
     x="254.5" /><rect
     id="rect12"
     height="559.1"
     width="53.5"
     transform="matrix(-0.5693 0.8221 -0.8221 -0.5693 1422.3784 -22.6276)"
     y="81.7"
     x="690.4" /><rect
     id="rect14"
     height="11.4"
     width="733.1"
     transform="matrix(-1 -1.224647e-16 1.224647e-16 -1 1274.0542 1493.4003)"
     y="741"
     x="270.5" /><rect
     id="rect16"
     height="63.1"
     width="198.9"
     class="st0"
     y="494.2"
     x="-24.8" /><rect
     id="rect18"
     height="58.5"
     width="155.1"
     class="st0"
     y="494.2"
     x="843" /><rect
     id="rect20"
     height="494.3"
     width="53.5"
     class="st0"
     transform="matrix(-0.5693 0.8221 -0.8221 -0.5693 1746.749 -79.8937)"
     y="170.4"
     x="867.5" /><rect
     id="rect22"
     height="487.4"
     width="53.5"
     class="st0"
     transform="matrix(0.5693 0.8222 -0.8222 0.5693 382.7227 18.0537)"
     y="130.6"
     x="147.4" /></svg>