<svg id="Слой_1" data-name="Слой 1" xmlns="http://www.w3.org/2000/svg" xmlns:xlink="http://www.w3.org/1999/xlink" viewBox="0 0 174.98 173.98"><defs><style>.cls-1{fill:url(#Безымянный_градиент_38);}.cls-2{fill:url(#Безымянный_градиент_38-2);}.cls-3{fill:url(#Безымянный_градиент_38-3);}.cls-4{fill:url(#Безымянный_градиент_37);}.cls-5{fill:url(#Безымянный_градиент_37-2);}.cls-6{fill:url(#Безымянный_градиент_37-3);}.cls-7{fill:url(#Безымянный_градиент_14);}.cls-8{fill:url(#Безымянный_градиент_14-2);}.cls-9{fill:url(#Безымянный_градиент_14-3);}.cls-10{fill:url(#Безымянный_градиент_6);}.cls-11{fill:url(#Безымянный_градиент_6-2);}.cls-12{fill:url(#Безымянный_градиент_6-3);}</style><linearGradient id="Безымянный_градиент_38" x1="320.43" y1="309.69" x2="344.76" y2="309.69" gradientTransform="translate(641.59 644.38) rotate(180)" gradientUnits="userSpaceOnUse"><stop offset="0.25" stop-color="#5efce8"/><stop offset="1" stop-color="#736efe"/></linearGradient><linearGradient id="Безымянный_градиент_38-2" x1="319.31" y1="294.5" x2="376.24" y2="294.5" xlink:href="#Безымянный_градиент_38"/><linearGradient id="Безымянный_градиент_38-3" x1="320.51" y1="278.06" x2="407.93" y2="278.06" xlink:href="#Безымянный_градиент_38"/><linearGradient id="Безымянный_градиент_37" x1="344.59" y1="332.99" x2="320.59" y2="332.99" gradientTransform="translate(641.59 644.38) rotate(180)" gradientUnits="userSpaceOnUse"><stop offset="0" stop-color="#736efe"/><stop offset="0.75" stop-color="#5efce8"/></linearGradient><linearGradient id="Безымянный_градиент_37-2" x1="376.24" y1="348.17" x2="319.31" y2="348.17" xlink:href="#Безымянный_градиент_37"/><linearGradient id="Безымянный_градиент_37-3" x1="407.93" y1="364.62" x2="320.51" y2="364.62" xlink:href="#Безымянный_градиент_37"/><linearGradient id="Безымянный_градиент_14" x1="296.12" y1="332.99" x2="320.45" y2="332.99" gradientTransform="translate(641.59 644.38) rotate(180)" gradientUnits="userSpaceOnUse"><stop offset="0" stop-color="#5efce8"/><stop offset="1" stop-color="#5efce8"/></linearGradient><linearGradient id="Безымянный_градиент_14-2" x1="264.64" y1="348.17" x2="321.57" y2="348.17" xlink:href="#Безымянный_градиент_14"/><linearGradient id="Безымянный_градиент_14-3" x1="232.95" y1="364.62" x2="320.37" y2="364.62" xlink:href="#Безымянный_градиент_14"/><linearGradient id="Безымянный_градиент_6" x1="296.29" y1="309.69" x2="320.29" y2="309.69" gradientTransform="translate(641.59 644.38) rotate(180)" gradientUnits="userSpaceOnUse"><stop offset="0" stop-color="#5efce8"/><stop offset="0.86" stop-color="#5efce8"/><stop offset="1" stop-color="#5efce8"/></linearGradient><linearGradient id="Безымянный_градиент_6-2" x1="264.64" y1="294.5" x2="321.57" y2="294.5" xlink:href="#Безымянный_градиент_6"/><linearGradient id="Безымянный_градиент_6-3" x1="232.95" y1="278.06" x2="320.37" y2="278.06" xlink:href="#Безымянный_градиент_6"/></defs><title>8</title><path class="cls-1" d="M296.83,322.69h24.33v24A24.17,24.17,0,0,1,296.83,322.69Z" transform="translate(-233.65 -236.05)"/><path class="cls-2" d="M322.28,361.15v17.19a57,57,0,0,1-56.93-56.93h17.19A39.78,39.78,0,0,0,322.28,361.15Z" transform="translate(-233.65 -236.05)"/><path class="cls-3" d="M251.5,322.61v.16a69.42,69.42,0,0,0,69.42,69.42h.16V410h-.16a87.26,87.26,0,0,1-87.26-87.26v-.16Z" transform="translate(-233.65 -236.05)"/><path class="cls-4" d="M321,299.23v24.33H297A24.17,24.17,0,0,1,321,299.23Z" transform="translate(-233.65 -236.05)"/><path class="cls-5" d="M282.54,324.67H265.35a57,57,0,0,1,56.93-56.93v17.19A39.78,39.78,0,0,0,282.54,324.67Z" transform="translate(-233.65 -236.05)"/><path class="cls-6" d="M321.08,253.89h-.16a69.42,69.42,0,0,0-69.42,69.42v.16H233.65v-.16a87.26,87.26,0,0,1,87.26-87.26h.16Z" transform="translate(-233.65 -236.05)"/><path class="cls-7" d="M345.46,323.4H321.13v-24A24.17,24.17,0,0,1,345.46,323.4Z" transform="translate(-233.65 -236.05)"/><path class="cls-8" d="M320,284.94V267.74a57,57,0,0,1,56.93,56.93H359.75A39.78,39.78,0,0,0,320,284.94Z" transform="translate(-233.65 -236.05)"/><path class="cls-9" d="M390.8,323.48v-.16a69.42,69.42,0,0,0-69.42-69.42h-.16V236.05h.16a87.26,87.26,0,0,1,87.26,87.26v.16Z" transform="translate(-233.65 -236.05)"/><path class="cls-10" d="M321.29,346.86V322.53h24A24.17,24.17,0,0,1,321.29,346.86Z" transform="translate(-233.65 -236.05)"/><path class="cls-11" d="M359.75,321.41h17.19A57,57,0,0,1,320,378.34V361.15A39.78,39.78,0,0,0,359.75,321.41Z" transform="translate(-233.65 -236.05)"/><path class="cls-12" d="M321.21,392.19h.16a69.42,69.42,0,0,0,69.42-69.42v-.16h17.84v.16A87.26,87.26,0,0,1,321.38,410h-.16Z" transform="translate(-233.65 -236.05)"/></svg>