<?xml version="1.0" encoding="utf-8"?>
<!-- Generator: Adobe Illustrator 19.2.0, SVG Export Plug-In . SVG Version: 6.00 Build 0)  -->
<svg version="1.1" id="Слой_1" xmlns="http://www.w3.org/2000/svg" xmlns:xlink="http://www.w3.org/1999/xlink" x="0px" y="0px"
	 viewBox="0 0 1920 1080" style="enable-background:new 0 0 1920 1080;" xml:space="preserve">
<style type="text/css">
	.st0{fill:#F56B60;}
</style>
<path class="st0" d="M1498.9,694.8c0,36.2-20.2,67.5-49.4,84.2c-5.6,1.4-11.1,4.2-16,7c-13.9,9-23,25-23,43.1c0,2.8,0,5.6,0.7,8.3
	c0,2.1,0.7,4.2,1.4,6.3l0,0c1.4,5.6,1.4,11.8,1.4,18.1c0,24.3-9,45.9-23.7,63.3c-11.8,13.9-18.8,30.6-17.4,48.7c0,0.7,0,2.1,0,2.8
	c1.4,54.3-43.8,99.5-98.8,99.5c-20.9,0-39.7-6.3-55.7-16.7c-23-15.3-50.1-22.3-77.2-17.4c-5.6,0.7-11.1,1.4-16.7,1.4
	c-14.6,0-27.8-2.8-40.4-8.3c-23.7-10.4-50.1-12.5-74.4-4.2c-9.7,3.5-20.9,5.6-32,5.6c-9.7,0-18.8-1.4-27.8-4.2
	c-25-7-51.5-4.2-74.4,6.3c-12.5,5.6-27.1,9-41.7,9c-7.7,0-14.6-0.7-21.6-2.1c-25-5.6-50.8-0.7-72.4,12.5
	c-15.3,9-34.1,14.6-53.6,13.9c-51.5-1.4-93.9-41.7-96-92.5c0-2.1,0-4.2,0-6.3c0-15.3-5.6-29.9-15.3-42.4
	c-13.9-17.4-21.6-39-21.6-62.6c0-4.9,0.7-9,1.4-13.9c0-0.7,0-1.4,0.7-2.1c2.8-4.9,4.2-10.4,4.9-16.7c0-2.1,0-4.2,0-5.6
	c0-18.8-10.4-35.5-25.7-45.2c-2.8-2.1-6.3-3.5-9-4.2l0,0c-1.4-0.7-3.5-2.1-4.9-2.8c-27.8-17.4-46.6-48-46.6-82.8
	c0-55,47.3-100.2,103.7-97.4c50.1,2.1,91.1,42.4,93.9,91.8c0.7,15.3-2.1,29.2-7.7,42.4l-0.7,0.7c-2.1,2.8-4.2,5.6-5.6,9
	c-2.8,6.3-4.9,13.2-5.6,20.2c0,2.1,0,4.2,0,6.3l0,0c0,1.4,0,2.8,0,4.2c2.8,26.4,25.7,46.6,52.9,46.6c29.2,0,53.6-23.7,53.6-52.9
	c0-6.3-1.4-12.5-3.5-18.1l0,0c0-0.7,0-0.7-0.7-1.4c-4.9-12.5-13.9-23-25.7-28.5c0,0,0,0-0.7,0c-30.6-16.7-52.2-48.7-52.2-85.6
	c0-56.4,48.7-101.6,107.1-97.4c48,3.5,87,41.7,90.4,89.1c2.1,27.1-7,52.2-23.7,71c-2.1,1.4-3.5,3.5-5.6,5.6
	c-5.6,7-9.7,14.6-11.1,23.7c-0.7,2.8-0.7,6.3-0.7,9c0,29.2,23.7,52.9,53.6,52.9c29.2,0,53.6-23.7,53.6-52.9c0-4.9-0.7-9.7-2.1-14.6
	c-2.8-9-7.7-16.7-14.6-23.7c-3.5-3.5-7-6.3-11.1-8.3c-21.6-18.1-34.8-44.5-34.8-73.7c0-55,47.3-100.2,103.7-97.4
	c50.1,2.1,90.4,41.7,93.9,90.4c2.1,31.3-11.1,59.8-32.7,79.3c-2.8,1.4-4.9,3.5-7.7,5.6c-7.7,7.7-13.2,16.7-15.3,27.8
	c-0.7,3.5-0.7,7-0.7,10.4c0,29.2,23.7,52.9,53.6,52.9c29.2,0,53.6-23.7,53.6-52.9c0-1.4,0-3.5,0-4.9c-0.7-10.4-4.9-20.2-11.1-27.8
	l0,0c-1.4-1.4-2.8-2.8-4.2-4.2c-13.9-16.7-23-38.3-23-61.9c0-55,47.3-100.2,103.7-97.4c50.8,2.1,91.8,43.1,93.9,92.5
	c1.4,34.1-14.6,64-39.7,82.8c-7.7,2.1-15.3,6.3-20.9,11.8c-7.7,7-13.2,16-15.3,25.7c-0.7,4.2-1.4,8.3-1.4,12.5
	c0,29.2,23.7,52.9,53.6,52.9c27.8,0,50.8-21.6,53.6-48c0-1.4,0-2.8,0-4.2c0-6.3-1.4-11.8-2.8-17.4c-1.4-3.5-2.8-7.7-4.9-10.4
	c-5.6-12.5-8.3-27.1-7-41.7c2.8-50.8,45.9-91.1,97.4-91.8C1453.7,596.7,1498.9,640.5,1498.9,694.8z"/>
<path class="st0" d="M1411.9,837.4c0.7,2.1,0.7,4.2,1.4,6.3C1412.6,841.5,1411.9,839.5,1411.9,837.4z"/>
<path class="st0" d="M1449.5,778.9c-4.9,2.8-10.4,5.6-16,7C1438.4,783.1,1444,781,1449.5,778.9z"/>
<path class="st0" d="M662.7,733l0.7-0.7c-0.7,1.4-1.4,2.8-2.1,4.9c-2.1,2.8-3.5,6.3-4.9,9c-2.8,6.3-4.2,13.2-4.2,20.2
	c0,0.7,0,1.4,0,2.1l0,0c0-2.1,0-4.2,0-6.3c0.7-7,2.1-13.9,5.6-20.2C658.5,738.6,660.6,735.8,662.7,733z"/>
<path class="st0" d="M755.9,748.3L755.9,748.3c0,0-0.7-0.7-0.7-1.4l0,0C755.9,746.9,755.9,747.6,755.9,748.3z"/>
<path class="st0" d="M851.9,695.4c-1.4,2.1-3.5,3.5-5.6,5.6C848.4,698.9,849.8,697.5,851.9,695.4z"/>
<path class="st0" d="M925.6,696.1c-4.2-2.8-7.7-4.9-11.1-8.3C918,690.6,922.2,692.7,925.6,696.1z"/>
<path class="st0" d="M1044.6,686.4c-2.1,2.1-4.9,4.2-7.7,5.6C1039,690.6,1041.8,688.5,1044.6,686.4z"/>
<path class="st0" d="M1116.3,697.5c-1.4-1.4-2.8-2.8-4.2-4.2C1114.2,694.8,1114.9,696.1,1116.3,697.5z"/>
<path class="st0" d="M1247.8,709.4c-6.3,4.9-13.2,8.3-20.9,11.8C1233.2,715.6,1240.1,711.4,1247.8,709.4z"/>
<path class="st0" d="M1313.9,742.1c-2.1-3.5-3.5-7-4.9-10.4C1310.4,735.1,1312.5,738.6,1313.9,742.1z"/>
<path class="st0" d="M524.2,780.3c3.5,1.4,6.3,2.8,9,4.2C530.5,783.1,527.7,781.7,524.2,780.3z"/>
<path class="st0" d="M559,835.3c-0.7,6.3-2.1,11.8-4.9,16.7C555.5,845.7,556.9,840.2,559,835.3z"/>
<path class="st0" d="M661.3,736.5c-1.4,3.5-3.5,6.3-4.9,9C657.8,742.1,659.2,739.3,661.3,736.5z"/>
<path class="st0" d="M1721.5,278.7c-44.5,0-80,35.5-80,78.6s36.2,78.6,80,78.6c44.5,0,80-35.5,80-78.6
	C1802.2,314.2,1766.1,278.7,1721.5,278.7z"/>
<path class="st0" d="M1385.5,74.9c-44.5,0-80,35.5-80,78.6c0,43.1,36.2,78.6,80,78.6c44.5,0,80-35.5,80-78.6
	S1429.3,74.9,1385.5,74.9z"/>
<path class="st0" d="M978.5,6c-44.5,0-80,35.5-80,78.6s36.2,78.6,80,78.6c44.5,0,80-35.5,80-78.6C1058.5,41.5,1023,6,978.5,6z"/>
<path class="st0" d="M582,65.1c-44.5,0-80,35.5-80,78.6c0,43.1,36.2,78.6,80,78.6c44.5,0,80-35.5,80-78.6
	C662,100.6,625.8,65.1,582,65.1z"/>
<path class="st0" d="M234.1,262.7c-44.5,0-80,35.5-80,78.6c0,43.1,36.2,78.6,80,78.6c44.5,0,80-35.5,80-78.6
	C314.1,297.5,277.9,262.7,234.1,262.7z"/>
<path class="st0" d="M1539.3,422.7c-49.4,0-89.7,39.7-89.7,88.4s40.4,88.4,89.7,88.4c49.4,0,89.7-39.7,89.7-88.4
	C1629,461.7,1588.7,422.7,1539.3,422.7z"/>
<path class="st0" d="M1275.6,295.4c-49.4,0-89.7,39.7-89.7,88.4s40.4,88.4,89.7,88.4s89.7-39.7,89.7-88.4
	C1365.3,334.4,1325,295.4,1275.6,295.4z"/>
<path class="st0" d="M977.8,253c-49.4,0-89.7,39.7-89.7,88.4s40.4,88.4,89.7,88.4c49.4,0,89.7-39.7,89.7-88.4
	C1067.6,292.6,1027.2,253,977.8,253z"/>
<path class="st0" d="M705.8,295.4c-49.4,0-89.7,39.7-89.7,88.4s40.4,88.4,89.7,88.4c49.4,0,89.7-39.7,89.7-88.4
	C795.5,334.4,755.2,295.4,705.8,295.4z"/>
<path class="st0" d="M442.1,406c-49.4,0-89.7,39.7-89.7,88.4s40.4,88.4,89.7,88.4s89.7-39.7,89.7-88.4
	C531.9,445.7,491.5,406,442.1,406z"/>
</svg>
