<?xml version="1.0" encoding="utf-8"?>
<!-- Generator: Adobe Illustrator 19.2.0, SVG Export Plug-In . SVG Version: 6.00 Build 0)  -->
<svg version="1.1" id="Capa_1" xmlns="http://www.w3.org/2000/svg" xmlns:xlink="http://www.w3.org/1999/xlink" x="0px" y="0px"
	 viewBox="0 0 511.6 511.6" style="enable-background:new 0 0 511.6 511.6;" xml:space="preserve">
<style type="text/css">
	.st0{fill:#777777;}
</style>
<g>
	<path class="st0" d="M506.2,179L360,32.8c-3.6-3.6-7.9-5.4-12.8-5.4s-9.2,1.8-12.8,5.4c-3.6,3.6-5.4,7.9-5.4,12.8v73.1h-64
		c-135.7,0-219,38.4-249.8,115.1C5,259.3,0,291,0,328.9c0,31.6,12.1,74.5,36.3,128.8c0.6,1.3,1.6,3.6,3,6.8c1.4,3.2,2.7,6.1,3.9,8.6
		c1.1,2.5,2.4,4.6,3.7,6.3c2.3,3.2,4.9,4.9,8,4.9c2.9,0,5.1-1,6.7-2.9c1.6-1.9,2.4-4.3,2.4-7.1c0-1.7-0.2-4.2-0.7-7.6
		c-0.5-3.3-0.7-5.6-0.7-6.7c-1-12.9-1.4-24.7-1.4-35.1c0-19.2,1.7-36.4,5-51.7c3.3-15.2,7.9-28.4,13.8-39.5
		c5.9-11.1,13.5-20.7,22.8-28.8c9.3-8.1,19.4-14.7,30.1-19.8c10.8-5.1,23.4-9.2,38-12.1c14.6-3,29.2-5,44-6.1s31.5-1.7,50.1-1.7h64
		v73.1c0,4.9,1.8,9.2,5.4,12.8c3.6,3.6,7.9,5.4,12.8,5.4c4.9,0,9.2-1.8,12.9-5.4l146.2-146.2c3.6-3.6,5.4-7.9,5.4-12.8
		C511.6,186.9,509.8,182.6,506.2,179z"/>
</g>
</svg>
