<?xml version="1.0" encoding="utf-8"?>
<!-- Generator: Adobe Illustrator 19.2.0, SVG Export Plug-In . SVG Version: 6.00 Build 0)  -->
<svg version="1.1" id="Capa_1" xmlns="http://www.w3.org/2000/svg" xmlns:xlink="http://www.w3.org/1999/xlink" x="0px" y="0px"
	 viewBox="0 0 511.6 511.6" style="enable-background:new 0 0 511.6 511.6;" xml:space="preserve">
<style type="text/css">
	.st0{fill:#777777;}
</style>
<g>
	<g>
		<path class="st0" d="M333.6,438.5h-73.1c-2.7,0-4.9,0.9-6.6,2.6c-1.7,1.7-2.6,3.9-2.6,6.6v54.8c0,2.7,0.9,4.9,2.6,6.6
			c1.7,1.7,3.9,2.6,6.6,2.6h73.1c2.7,0,4.9-0.9,6.6-2.6c1.7-1.7,2.6-3.9,2.6-6.6v-54.8c0-2.7-0.8-4.9-2.6-6.6
			C338.4,439.4,336.2,438.5,333.6,438.5z"/>
		<path class="st0" d="M196.5,402h-54.8V9.1c0-2.7-0.9-4.9-2.6-6.6c-1.7-1.7-3.9-2.6-6.6-2.6H77.8c-2.7,0-4.9,0.9-6.6,2.6
			c-1.7,1.7-2.6,3.9-2.6,6.6V402H13.8c-4.2,0-7,1.9-8.6,5.7c-1.5,3.6-0.9,7,2,10l91.4,91.4c2.1,1.7,4.3,2.6,6.6,2.6
			c2.5,0,4.7-0.9,6.6-2.6l91.1-91.1c1.9-2.3,2.9-4.6,2.9-6.8c0-2.7-0.9-4.9-2.6-6.6C201.4,402.8,199.2,402,196.5,402z"/>
		<path class="st0" d="M388.4,292.4H260.5c-2.7,0-4.9,0.9-6.6,2.6c-1.7,1.7-2.6,3.9-2.6,6.6v54.8c0,2.7,0.9,4.9,2.6,6.6
			c1.7,1.7,3.9,2.6,6.6,2.6h127.9c2.7,0,4.9-0.9,6.6-2.6c1.7-1.7,2.6-3.9,2.6-6.6v-54.8c0-2.7-0.9-4.9-2.6-6.6
			C393.3,293.2,391.1,292.4,388.4,292.4z"/>
		<path class="st0" d="M504.6,2.6C502.9,0.9,500.7,0,498,0H260.5c-2.7,0-4.9,0.9-6.6,2.6c-1.7,1.7-2.6,3.9-2.6,6.6V64
			c0,2.7,0.9,4.9,2.6,6.6c1.7,1.7,3.9,2.6,6.6,2.6H498c2.7,0,4.9-0.9,6.6-2.6c1.7-1.7,2.6-3.9,2.6-6.6V9.1
			C507.2,6.5,506.3,4.3,504.6,2.6z"/>
		<path class="st0" d="M443.2,146.2H260.5c-2.7,0-4.9,0.9-6.6,2.6c-1.7,1.7-2.6,3.9-2.6,6.6v54.8c0,2.7,0.9,4.9,2.6,6.6
			c1.7,1.7,3.9,2.6,6.6,2.6h182.7c2.7,0,4.9-0.9,6.6-2.6c1.7-1.7,2.6-3.9,2.6-6.6v-54.8c0-2.7-0.9-4.9-2.6-6.6
			C448.1,147,445.9,146.2,443.2,146.2z"/>
	</g>
</g>
</svg>
