<?xml version="1.0" encoding="utf-8"?>
<!-- Generator: Adobe Illustrator 19.2.0, SVG Export Plug-In . SVG Version: 6.00 Build 0)  -->
<svg version="1.1" id="Layer_1" xmlns="http://www.w3.org/2000/svg" xmlns:xlink="http://www.w3.org/1999/xlink" x="0px" y="0px"
	 viewBox="0 0 467 75.4" style="enable-background:new 0 0 467 75.4;" xml:space="preserve">
<title>streamium-heart</title>
<g>
	<path d="M48.7,18.9C48,17,46.8,15.3,45.3,14c-1.6-1.3-3.5-2.2-5.6-2.6c-2.5-0.5-5.1-0.8-7.6-0.8c-2.1,0-4.2,0.3-6.2,0.8
		c-2,0.5-3.8,1.3-5.5,2.4c-1.6,1.1-3,2.5-4,4.2c-1.1,1.9-1.6,4-1.5,6.1c0,1.6,0.3,3.1,1,4.5c0.6,1.2,1.5,2.3,2.6,3.1
		c1.1,0.9,2.3,1.6,3.6,2.1c1.4,0.5,2.8,1,4.1,1.5l7.2,2.2c2.3,0.7,4.6,1.4,6.8,2.3c2.1,0.8,4,1.8,5.8,3.1c1.7,1.2,3.1,2.8,4.1,4.7
		c1.1,2.2,1.6,4.6,1.5,7.1c-0.1,2.1-0.4,4.1-1,6.1c-0.8,2.5-2.1,4.8-3.8,6.8c-2.2,2.4-4.9,4.3-7.9,5.5c-3.4,1.5-7.8,2.3-13.3,2.3
		c-3.5,0-7-0.4-10.5-1.4c-3-0.8-5.8-2.3-8.2-4.2c-2.3-2-4.1-4.5-5.2-7.3c-1.3-3.4-1.8-7-1.6-10.6h6.4c-0.2,2.8,0.1,5.7,1,8.4
		c0.8,2.2,2.1,4.1,3.9,5.6c1.9,1.5,4,2.6,6.3,3.2c2.7,0.7,5.5,1,8.3,1c2.3,0,4.5-0.3,6.7-0.9c2.2-0.5,4.3-1.4,6.2-2.6
		c1.8-1.1,3.4-2.7,4.5-4.5c1.2-2,1.8-4.2,1.8-6.5c0.1-2.1-0.4-4.1-1.6-5.8c-1-1.5-2.4-2.7-4-3.6c-1.7-1-3.5-1.7-5.4-2.3l-5.8-1.7
		l-6.6-2c-3.6-0.9-6.9-2.8-9.6-5.4c-2.5-2.5-3.7-5.9-3.7-10.2C8.2,18.6,11,13.1,15.9,9.8c2.3-1.6,4.9-2.8,7.6-3.5
		c2.9-0.8,5.9-1.1,8.8-1.1c3.2,0,6.5,0.3,9.6,1.1c2.8,0.6,5.5,1.9,7.8,3.6c2.2,1.7,3.9,4,5,6.5c1.3,3.1,1.8,6.5,1.5,9.9h-6.4
		C50,23.8,49.6,21.3,48.7,18.9z"/>
	<path d="M71.3,25.3l3.1-14.7h6l-3.1,14.7H87l-0.9,5h-9.9l-6.7,31.2c-0.3,1.1-0.4,2-0.5,2.6c-0.1,0.7-0.1,1.3-0.1,2
		c0,0.8,0.2,1.7,0.7,2.4c0.6,0.7,1.5,1.1,2.4,1c2.3,0,4.7-0.2,7-0.6l-1,5.1c-1,0.1-2,0.2-3,0.3c-1,0.1-2,0.1-3,0.1
		c-1.1,0-2.2-0.1-3.3-0.2c-1-0.1-2-0.5-2.9-1c-0.8-0.5-1.5-1.2-2-2.1c-0.5-1.1-0.8-2.3-0.8-3.5c0-0.7,0.1-1.4,0.1-2.1
		c0.1-1,0.3-2,0.5-2.9l6.7-32.3h-8.8l1.1-5h8.8L71.3,25.3z"/>
	<path d="M101.3,25.3l-2.5,11.2H99c1.7-3.3,4.1-6.2,7-8.6c3.1-2.3,6.8-3.5,10.7-3.3h2.5c0.3,0,0.5,0,0.8,0.1l-1.3,6
		c-0.6,0-1.1,0-1.7,0s-1.1,0-1.7,0c-2.4,0-4.8,0.6-7,1.6c-2,1-3.8,2.3-5.3,4c-1.5,1.7-2.8,3.6-3.7,5.7c-1,2.1-1.7,4.3-2.2,6.6
		l-5.5,25.5h-5.9l10.4-48.7L101.3,25.3L101.3,25.3z"/>
	<path d="M121.8,55.1c0,2.1,0.3,4.1,0.9,6.1c0.5,1.8,1.4,3.4,2.6,4.9c1.2,1.4,2.7,2.5,4.4,3.2c5.5,2.1,11.6,1.3,16.4-2.2
		c2.8-2.3,4.8-5.3,5.9-8.7h6c-1.6,5.5-4.3,9.8-7.9,12.6s-8.4,4.3-14.3,4.3c-6.5,0-11.4-1.8-14.8-5.5c-3.4-3.7-5-8.7-5-15.1
		c0-3.9,0.6-7.7,1.8-11.4c1.1-3.6,2.9-6.9,5.1-9.9c2.3-2.9,5.1-5.3,8.3-7c3.4-1.8,7.3-2.7,11.1-2.6c2.7-0.1,5.3,0.4,7.8,1.4
		c4.5,1.7,7.9,5.3,9.4,9.9c0.8,2.5,1.3,5.1,1.2,7.7c0,1.4,0,2.8-0.1,4.1s-0.2,2.8-0.4,4.2H122C121.8,52.6,121.7,53.8,121.8,55.1z
		 M154.7,44.4c0-0.6,0-1.2,0-1.8c0-4.2-1.2-7.5-3.5-9.9c-2.4-2.5-5.6-3.7-9.8-3.7c-2.3,0-4.6,0.5-6.8,1.5c-2,1-3.9,2.3-5.5,3.9
		c-1.6,1.6-3,3.5-4,5.5c-1.1,2.1-1.9,4.3-2.4,6.5h31.8C154.6,45.6,154.6,45,154.7,44.4L154.7,44.4z"/>
	<path d="M171.7,32.7c1.2-2,2.7-3.7,4.6-5c1.9-1.3,4-2.3,6.2-2.9c2.4-0.6,4.9-1,7.4-0.9c1.8,0,3.6,0.2,5.4,0.5
		c1.9,0.3,3.8,0.9,5.5,1.7c1.6,0.8,3.1,1.9,4.2,3.3c1.2,1.5,1.8,3.4,1.7,5.4c0,1.3-0.1,2.7-0.3,4c-0.2,1.4-0.5,2.9-0.8,4.4
		c-0.3,1.5-0.6,2.9-1,4.3c-0.3,1.4-0.6,2.7-0.9,3.7c-0.6,2.7-1.1,5-1.5,6.8c-0.4,1.8-0.7,3.3-1,4.5c-0.3,1.2-0.4,2.2-0.6,2.9
		c-0.1,0.8-0.2,1.5-0.2,2.3c-0.1,0.7,0.3,1.4,1,1.6c0.7,0.2,1.4,0.3,2.1,0.3c0.4,0,0.8,0,1.2,0s0.7-0.1,1.2-0.1l-0.9,4.6
		c-1.6,0.3-3.3,0.5-4.9,0.5c-3.3,0-5.1-1.7-5.2-5.2c0-0.4,0-0.9,0-1.3s0.1-0.9,0.1-1.3l-0.2-0.2c-1.7,2.8-4.2,5.1-7.2,6.6
		c-3,1.5-6.4,2.3-9.7,2.3c-2.1,0-4.2-0.2-6.2-0.8c-1.8-0.4-3.4-1.2-4.9-2.4c-1.4-1.1-2.5-2.5-3.2-4.1c-0.8-1.9-1.2-4-1.2-6.1
		c-0.1-2.3,0.4-4.5,1.4-6.5c0.9-1.7,2.2-3.2,3.7-4.3c1.6-1.2,3.5-2.1,5.4-2.7c2.1-0.7,4.2-1.2,6.3-1.6c2.9-0.5,5.8-0.7,8.7-0.7
		c2.3,0.1,4.5-0.2,6.8-0.7c1.7-0.4,3.3-1.3,4.4-2.7c1-1.3,1.5-3.6,1.5-6.8c0.1-1.3-0.3-2.5-1-3.5c-0.6-0.9-1.5-1.6-2.5-2.1
		c-1-0.5-2.2-0.8-3.3-1c-1.2-0.2-2.4-0.3-3.5-0.3c-1.8,0-3.6,0.2-5.4,0.6c-1.6,0.4-3.2,1-4.6,1.8c-1.4,0.9-2.6,2-3.5,3.4
		c-1,1.6-1.6,3.3-1.8,5.1h-6C169.5,37.4,170.4,34.9,171.7,32.7z M198.6,47.8c-0.6,0.6-1.3,1.1-2.1,1.4c-0.9,0.4-1.9,0.6-2.9,0.8
		c-1,0.2-2,0.3-3.1,0.4l-2.7,0.2c-1.8,0.1-3.9,0.3-6.1,0.5c-2.1,0.2-4.3,0.7-6.3,1.4c-1.9,0.7-3.5,1.8-4.9,3.2c-1.4,1.7-2.1,3.8-2,6
		c0,1.4,0.3,2.8,0.9,4c0.6,1.1,1.4,2,2.4,2.7c1,0.7,2.2,1.3,3.5,1.6c1.3,0.3,2.7,0.5,4.1,0.5c4.8,0,8.6-1.3,11.6-3.9
		c3-2.7,5.1-6.4,5.9-10.4l1.9-8.2L198.6,47.8z"/>
	<path d="M227.4,25.3l-1.9,8.5l0.2,0.2c1.8-2.9,4.3-5.4,7.2-7.2c3-1.9,6.5-3,10-2.9c3-0.1,5.9,0.8,8.2,2.6c2.1,1.7,3.3,4.3,3.6,7.8
		h0.2c1.8-3,4.3-5.5,7.2-7.5c2.9-2,6.4-3,9.9-2.9c4.7,0,8.1,1.2,10.3,3.6c2.2,2.6,3.3,5.9,3.2,9.2c0,0.9-0.1,1.8-0.2,2.7
		c-0.1,0.9-0.3,1.9-0.5,2.9L278,74.1h-6l7-31.9c0.4-1.6,0.6-3.3,0.6-4.9c0.1-2.2-0.7-4.3-2.2-6c-1.5-1.6-3.8-2.4-7-2.4
		c-2.4-0.1-4.7,0.6-6.8,1.8c-2,1.3-3.7,2.9-5,4.9c-1.5,2.2-2.7,4.6-3.5,7.2c-1,2.9-1.8,5.8-2.5,8.8l-4.8,22.5h-6l6.8-31.7
		c0.4-1.5,0.6-3.1,0.6-4.7c0.1-2.2-0.6-4.4-1.9-6.1c-1.3-1.7-3.4-2.5-6.3-2.5c-2.2,0-4.3,0.6-6.1,1.6c-2,1.1-3.8,2.6-5.3,4.3
		c-1.7,2-3,4.1-4.1,6.5c-1.2,2.6-2.1,5.2-2.7,8l-5.3,24.7h-5.9L222,25.4L227.4,25.3L227.4,25.3z"/>
	<path d="M306.5,25.3l-10.5,48.7h-5.9l10.4-48.7H306.5L306.5,25.3z M310.6,6.6l-2.1,9.5h-6l2.1-9.5H310.6z"/>
	<path d="M341.1,74.1l1.7-8.9h-0.2c-1.9,2.9-4.4,5.4-7.3,7.3c-3,1.9-6.5,3-10.1,2.9c-2,0-4-0.2-5.9-0.7c-1.7-0.4-3.3-1.2-4.7-2.3
		c-1.3-1.1-2.4-2.5-3.1-4.1c-0.8-1.9-1.1-3.9-1.1-6c0.1-1.9,0.3-3.9,0.8-5.8l6.7-31.2h6l-6.8,31.5c-0.2,0.8-0.3,1.6-0.5,2.4
		c-0.1,0.8-0.2,1.7-0.2,2.5c0,1.4,0.3,2.8,0.8,4.1c0.5,1.1,1.3,2,2.3,2.7c1,0.7,2.1,1.2,3.3,1.5c1.2,0.3,2.5,0.5,3.8,0.5
		c2.2,0,4.3-0.5,6.3-1.4c2.1-1,3.9-2.3,5.5-4c1.8-1.9,3.3-4,4.4-6.3c1.3-2.7,2.3-5.5,2.9-8.4l5.4-25h5.9l-10.5,48.7L341.1,74.1
		L341.1,74.1z"/>
	<path d="M374.2,25.3l-1.9,8.5l0.2,0.2c1.8-2.9,4.3-5.4,7.2-7.2c3-1.9,6.5-3,10-2.9c3-0.1,5.9,0.8,8.2,2.6c2.1,1.7,3.3,4.3,3.6,7.8
		h0.2c1.8-3,4.3-5.5,7.2-7.5c2.9-1.9,6.4-3,9.9-2.9c4.7,0,8.1,1.2,10.3,3.6c2.2,2.6,3.3,5.9,3.2,9.2c0,0.9-0.1,1.8-0.2,2.7
		c-0.1,0.9-0.3,1.9-0.5,2.9l-6.8,31.7h-6l6.9-31.9c0.4-1.6,0.6-3.3,0.6-4.9c0.1-2.2-0.7-4.3-2.2-6c-1.5-1.6-3.8-2.4-7-2.4
		c-2.4-0.1-4.7,0.6-6.8,1.8c-2,1.3-3.7,2.9-5,4.9c-1.5,2.2-2.7,4.6-3.5,7.2c-1,2.9-1.8,5.8-2.5,8.8l-4.8,22.5h-6l6.8-31.7
		c0.4-1.5,0.6-3.1,0.6-4.7c0.1-2.2-0.6-4.4-1.9-6.1c-1.3-1.7-3.4-2.5-6.3-2.5c-2.2,0-4.3,0.6-6.1,1.6c-2,1.1-3.8,2.6-5.3,4.3
		c-1.7,2-3,4.1-4.1,6.5c-1.2,2.6-2.1,5.2-2.7,8l-5.3,24.7h-5.8l10.4-48.7L374.2,25.3L374.2,25.3z"/>
</g>
</svg>
