<?xml version="1.0" encoding="utf-8"?>
<!-- Generator: Adobe Illustrator 19.2.0, SVG Export Plug-In . SVG Version: 6.00 Build 0)  -->
<svg version="1.1" id="Layer_1" xmlns="http://www.w3.org/2000/svg" xmlns:xlink="http://www.w3.org/1999/xlink" x="0px" y="0px"
	 viewBox="0 0 512 512" style="enable-background:new 0 0 512 512;" xml:space="preserve">
<style type="text/css">
	.st0{fill:#777777;}
</style>
<g>
	<g>
		<path class="st0" d="M400.4,175.8c-1.7-3.4-4.3-5.1-7.7-5.1H292l99.8-157.9c1.7-2.6,1.7-6,0-8.5S387.6,0,384.2,0H247.6
			c-3.4,0-6,1.7-7.7,4.3l-128,256c-1.7,2.6-1.7,6,0,8.5s5.1,4.3,7.7,4.3h87.9L112,500.9c-1.7,3.4,0,7.7,3.4,10.2
			c0.9,0.9,2.6,0.9,4.3,0.9c2.6,0,5.1-0.9,6.8-2.6l273.1-324.3C401.2,182.6,402.1,179.2,400.4,175.8z M149.5,454.8L228,267.1
			c0.9-2.6,0.9-5.1-0.9-7.7c-1.7-1.7-4.3-3.4-6.8-3.4h-87L252.8,17.1h116.1L268.1,174.9c-1.7,2.6-1.7,6,0,8.5s4.3,4.3,7.7,4.3h99
			L149.5,454.8z"/>
	</g>
</g>
</svg>
