<?xml version="1.0" encoding="utf-8"?>
<!-- Generator: Adobe Illustrator 19.2.0, SVG Export Plug-In . SVG Version: 6.00 Build 0)  -->
<svg version="1.1" id="Capa_1" xmlns="http://www.w3.org/2000/svg" xmlns:xlink="http://www.w3.org/1999/xlink" x="0px" y="0px"
	 viewBox="0 0 491.9 491.9" style="enable-background:new 0 0 491.9 491.9;" xml:space="preserve">
<style type="text/css">
	.st0{fill:#777777;}
</style>
<g>
	<g>
		<g>
			<path class="st0" d="M279.4,352.9c0,7.1-8.2,12.9-18.3,12.9H23.6c-10.1,0-18.3-5.8-18.3-12.9V184.7c0-7.1,8.2-12.9,18.3-12.9
				h237.5c10.1,0,18.3,5.8,18.3,12.9V352.9L279.4,352.9z"/>
			<circle class="st0" cx="73.9" cy="123.6" r="45.7"/>
			<circle class="st0" cx="199.4" cy="112.2" r="57.1"/>
			<path class="st0" d="M368.6,371.6c0,0-1.5,11.4-12.2,11.4c-10.7,0-79.2-63.9-79.2-72.3V227c0-8.4,67-72.3,79.2-72.3
				c12.2,0,12.2,11.4,12.2,11.4V371.6z"/>
		</g>
	</g>
</g>
<path class="st0" d="M398.6,177.9c-50.3,0-90.7,40.4-90.7,90.7s40.4,90.7,90.7,90.7s90.7-40.4,90.7-90.7S448.9,177.9,398.6,177.9z
	 M448,272.7c0,2.5-1.6,4.1-4.1,4.1h-35c-1.2,0-2.1,0.8-2.1,2.1v35c0,2.5-1.6,4.1-4.1,4.1h-8.2c-2.5,0-4.1-1.6-4.1-4.1v-35
	c0-1.2-0.8-2.1-2.1-2.1h-35c-2.5,0-4.1-1.6-4.1-4.1v-8.2c0-2.5,1.6-4.1,4.1-4.1h35c1.2,0,2.1-0.8,2.1-2.1v-35c0-2.5,1.6-4.1,4.1-4.1
	h8.2c2.5,0,4.1,1.6,4.1,4.1v35c0,1.2,0.8,2.1,2.1,2.1h35c2.5,0,4.1,1.6,4.1,4.1V272.7z"/>
</svg>
